HIERARCHY
ROOT reference
{
  OFFSET 0 0 0
  CHANNELS 6 Xposition Yposition Zposition Zrotation Xrotation Yrotation
  JOINT Hips
  {
    OFFSET 19.0575 92.4729 105.761
    CHANNELS 6 Xposition Yposition Zposition Zrotation Xrotation Yrotation
    JOINT Spine
    {
      OFFSET 0 8.25043 0
      CHANNELS 6 Xposition Yposition Zposition Zrotation Xrotation Yrotation
      JOINT Spine1
      {
        OFFSET 0 26.9735 0
        CHANNELS 6 Xposition Yposition Zposition Zrotation Xrotation Yrotation
        JOINT Neck
        {
          OFFSET 0 26.8627 2.44206
          CHANNELS 6 Xposition Yposition Zposition Zrotation Xrotation Yrotation
          JOINT Head
          {
            OFFSET 0 14.0861 -2.0123
            CHANNELS 6 Xposition Yposition Zposition Zrotation Xrotation Yrotation
            End Site
            {
              OFFSET 0 25.1537 0
            }
          }
        }
        JOINT LeftShoulder
        {
          OFFSET 4.03461 23.8974 -0.31355
          CHANNELS 6 Xposition Yposition Zposition Zrotation Xrotation Yrotation
          JOINT LeftArm
          {
            OFFSET 14.6104 0 0
            CHANNELS 6 Xposition Yposition Zposition Zrotation Xrotation Yrotation
            JOINT LeftForeArm
            {
              OFFSET 28.8903 0 0
              CHANNELS 6 Xposition Yposition Zposition Zrotation Xrotation Yrotation
              JOINT LeftHand
              {
                OFFSET 28.8168 0 0
                CHANNELS 6 Xposition Yposition Zposition Zrotation Xrotation Yrotation
                End Site
                {
                  OFFSET 15.0922 0 0
                }
              }
            }
          }
        }
        JOINT RightShoulder
        {
          OFFSET -4.01401 23.8974 -0.31355
          CHANNELS 6 Xposition Yposition Zposition Zrotation Xrotation Yrotation
          JOINT RightArm
          {
            OFFSET -14.6104 0 0
            CHANNELS 6 Xposition Yposition Zposition Zrotation Xrotation Yrotation
            JOINT RightForeArm
            {
              OFFSET -28.8903 0 0
              CHANNELS 6 Xposition Yposition Zposition Zrotation Xrotation Yrotation
              JOINT RightHand
              {
                OFFSET -28.8168 0 0
                CHANNELS 6 Xposition Yposition Zposition Zrotation Xrotation Yrotation
                End Site
                {
                  OFFSET -15.0922 0 0
                }
              }
            }
          }
        }
      }
    }
    JOINT LeftUpLeg
    {
      OFFSET 10.0615 0 0
      CHANNELS 6 Xposition Yposition Zposition Zrotation Xrotation Yrotation
      JOINT LeftLeg
      {
        OFFSET 0 -36.0896 0
        CHANNELS 6 Xposition Yposition Zposition Zrotation Xrotation Yrotation
        JOINT LeftFoot
        {
          OFFSET 0 -47.1136 0
          CHANNELS 6 Xposition Yposition Zposition Zrotation Xrotation Yrotation
          JOINT LeftToeBase
          {
            OFFSET 0 -6.53997 15.0922
            CHANNELS 6 Xposition Yposition Zposition Zrotation Xrotation Yrotation
            End Site
            {
              OFFSET 0 0 4.0246
            }
          }
        }
      }
    }
    JOINT RightUpLeg
    {
      OFFSET -10.0615 0 0
      CHANNELS 6 Xposition Yposition Zposition Zrotation Xrotation Yrotation
      JOINT RightLeg
      {
        OFFSET 0 -36.0896 0
        CHANNELS 6 Xposition Yposition Zposition Zrotation Xrotation Yrotation
        JOINT RightFoot
        {
          OFFSET 0 -47.1136 0
          CHANNELS 6 Xposition Yposition Zposition Zrotation Xrotation Yrotation
          JOINT RightToeBase
          {
            OFFSET 0 -6.53997 15.0922
            CHANNELS 6 Xposition Yposition Zposition Zrotation Xrotation Yrotation
            End Site
            {
              OFFSET 0 0 4.0246
            }
          }
        }
      }
    }
  }
}
MOTION
Frames:	6
Frame Time:	0.004
0 0 0 0 0 -0 -11.0731 86.0807 -87.5725 6.22842 -5.83859 28.761 7.10543e-015 8.25043 -1.42109e-014 1.30706 -2.96118 5.56218 0 26.9735 7.10543e-015 2.94715 20.8003 4.98742 0 26.8627 2.44206 11.771 29.3409 -1.35226 1.42109e-014 14.0861 -2.0123 -4.45802 -9.65966 -0.88916 4.03461 23.8974 -0.31355 -3.64359 18.6624 0.27613 14.6104 0 0 -29.6236 54.2886 -46.603 28.8903 7.10543e-015 0 10.5306 -19.108 -45.0804 28.8168 7.10543e-015 0 44.8868 -15.6954 -1.95415 -4.01401 23.8974 -0.31355 4.16286 25.5849 9.66028 -14.6104 0 -1.42109e-014 34.2646 60.7038 32.6509 -28.8903 0 0 -27.6759 -26.7842 25.2923 -28.8168 7.10543e-015 7.10543e-015 -15.9429 -19.7126 -9.71402 10.0615 0 0 9.64457 -34.9966 2.42536 0 -36.0896 -7.10543e-015 -26.6705 57.4067 -0.333443 0 -47.1136 0 -7.18178 -10.1578 22.5075 7.10543e-015 -6.53997 15.0922 -1.1632e-015 -4.04092e-015 1.59028e-014 -10.0615 0 -1.42109e-014 -3.70747 12.3387 -10.3321 0 -36.0896 0 7.29589 16.3534 -8.75056 0 -47.1136 -1.42109e-014 -5.33783 -22.1018 -17.8178 7.10543e-015 -6.53997 15.0922 -5.2181e-016 5.96354e-016 -0 
0 0 0 0 0 -0 -10.9958 86.1315 -87.1567 6.67489 -6.17841 28.4102 7.10543e-015 8.25043 0 0.98266 -2.59572 5.88483 0 26.9735 -7.10543e-015 2.91239 20.9517 5.32399 0 26.8627 2.44206 11.6172 29.2853 -1.39756 0 14.0861 -2.0123 -4.22908 -9.51755 -0.906024 4.03461 23.8974 -0.31355 -3.69491 18.5876 0.320664 14.6104 1.42109e-014 -2.84217e-014 -29.7588 54.2032 -46.4875 28.8903 0 -2.84217e-014 10.5936 -18.937 -45.1387 28.8168 3.55271e-015 7.10543e-015 44.6465 -15.5095 -2.01627 -4.01401 23.8974 -0.31355 4.09912 25.5417 9.7939 -14.6104 2.84217e-014 0 34.4784 60.7306 32.5581 -28.8903 0 7.10543e-015 -27.5373 -26.6538 25.1522 -28.8168 0 0 -15.824 -19.6682 -9.57638 10.0615 0 0 9.38929 -34.1261 2.785 0 -36.0896 0 -25.6027 56.3735 -1.58947 3.55271e-015 -47.1136 -1.42109e-014 -7.28768 -10.2925 22.4975 0 -6.53997 15.0922 -6.95746e-016 -2.38542e-015 3.18055e-015 -10.0615 1.42109e-014 0 -3.88599 13.38 -9.06415 3.55271e-015 -36.0896 1.42109e-014 7.45947 15.688 -9.37354 1.77636e-015 -47.1136 1.42109e-014 -5.31768 -22.0188 -17.8664 0 -6.53997 15.0922 -4.96962e-017 -1.98785e-016 -1.59028e-015 
0 0 0 0 0 -0 -10.941 86.0961 -86.8682 6.73035 -6.15442 28.3326 -7.10543e-015 8.25043 -1.42109e-014 0.967175 -2.49152 6.03283 -7.10543e-015 26.9735 7.10543e-015 2.72988 20.7261 5.51254 7.10543e-015 26.8627 2.44206 11.5298 29.5508 -1.43999 0 14.0861 -2.0123 -4.13882 -9.69353 -0.916662 4.03461 23.8974 -0.31355 -3.85309 18.6985 0.370132 14.6104 0 -2.84217e-014 -29.7231 54.0551 -46.3667 28.8903 7.10543e-015 0 10.6033 -18.828 -45.253 28.8168 0 7.10543e-015 44.4889 -15.4086 -2.09021 -4.01401 23.8974 -0.31355 4.16849 25.6444 9.82204 -14.6104 1.42109e-014 -1.42109e-014 34.2907 60.9148 32.7513 -28.8903 -1.42109e-014 -7.10543e-015 -27.489 -26.6052 24.9448 -28.8168 0 -3.55271e-015 -15.6322 -19.701 -9.51881 10.0615 1.42109e-014 -1.42109e-014 9.115 -34.1222 2.74815 0 -36.0896 0 -24.8556 55.5381 -2.21224 3.55271e-015 -47.1136 0 -7.38169 -10.1377 22.2823 7.10543e-015 -6.53997 15.0922 -1.39149e-015 5.76476e-015 -3.18055e-015 -10.0615 1.42109e-014 0 -3.90775 13.7377 -8.79612 -3.55271e-015 -36.0896 0 7.50461 15.4117 -9.18621 0 -47.1136 0 -5.4558 -22.0985 -17.9883 0 -6.53997 15.0922 4.96962e-017 -1.98785e-016 -0 
0 0 0 0 0 -0 -10.918 86.0571 -86.5957 6.70009 -6.10919 28.2965 0 8.25043 0 0.960334 -2.52139 6.1705 0 26.9735 -1.42109e-014 2.62255 20.6951 5.67048 0 26.8627 2.44206 11.4531 29.4194 -1.38086 1.42109e-014 14.0861 -2.0123 -4.07944 -9.50094 -0.860469 4.03461 23.8974 -0.31355 -3.88217 18.6507 0.420374 14.6104 2.84217e-014 0 -29.7447 53.9913 -46.3601 28.8903 7.10543e-015 0 10.6796 -18.6975 -45.3221 28.8168 0 7.10543e-015 44.2286 -15.2437 -2.1199 -4.01401 23.8974 -0.31355 4.14026 25.6851 9.86424 -14.6104 0 0 34.2021 60.9403 32.9339 -28.8903 0 0 -27.3956 -26.4557 24.7954 -28.8168 7.10543e-015 3.55271e-015 -15.3883 -19.6344 -9.40537 10.0615 0 0 8.89246 -34.2282 2.70822 -7.10543e-015 -36.0896 0 -24.0622 54.7454 -3.15052 3.55271e-015 -47.1136 0 -8.25495 -10.2519 22.4304 0 -6.53997 15.0922 0 3.18055e-015 -0 -10.0615 0 0 -3.81076 14.0016 -8.60946 3.55271e-015 -36.0896 0 7.50016 15.1564 -9.11114 0 -47.1136 1.42109e-014 -5.55276 -22.15 -18.0956 0 -6.53997 15.0922 -9.93923e-017 0 -0 
0 0 0 0 0 -0 -10.8978 86.0216 -86.3155 6.67454 -6.06194 28.1984 -7.10543e-015 8.25043 0 1.04785 -2.36446 6.3378 0 26.9735 0 2.25569 20.3081 5.91217 0 26.8627 2.44206 11.3877 29.456 -1.4392 1.42109e-014 14.0861 -2.0123 -3.77539 -9.25755 -0.851184 4.03461 23.8974 -0.31355 -3.73345 18.7411 0.541083 14.6104 2.84217e-014 0 -29.9174 53.8171 -46.2833 28.8903 0 0 10.6018 -18.3778 -45.4394 28.8168 3.55271e-015 7.10543e-015 44.0423 -14.9693 -2.21129 -4.01401 23.8974 -0.31355 4.30142 25.8711 9.7557 -14.6104 -1.42109e-014 0 33.7577 61.2068 33.4633 -28.8903 0 7.10543e-015 -27.4168 -26.4244 24.5396 -28.8168 7.10543e-015 0 -15.3742 -19.6495 -9.48485 10.0615 0 -1.42109e-014 8.69993 -34.2829 2.69179 7.10543e-015 -36.0896 -7.10543e-015 -23.3139 53.9574 -3.8837 -3.55271e-015 -47.1136 0 -8.81419 -10.4204 22.4092 7.10543e-015 -6.53997 15.0922 2.38542e-015 1.98785e-015 -9.54166e-015 -10.0615 0 -1.42109e-014 -3.72489 14.2747 -8.26643 -3.55271e-015 -36.0896 0 7.52072 14.8583 -9.08355 0 -47.1136 0 -5.69785 -22.1807 -18.2687 0 -6.53997 15.0922 5.71506e-016 0 -1.59028e-015 
0 0 0 0 0 -0 -10.8768 85.9732 -86.0436 6.62973 -5.99632 28.1549 -7.10543e-015 8.25043 0 1.04912 -2.41656 6.47191 7.10543e-015 26.9735 -2.13163e-014 2.11105 20.2787 6.07224 0 26.8627 2.44206 11.4092 29.4973 -1.46826 1.42109e-014 14.0861 -2.0123 -3.81307 -9.4177 -0.886106 4.03461 23.8974 -0.31355 -3.73185 18.7022 0.608421 14.6104 0 0 -29.8719 53.7786 -46.3943 28.8903 7.10543e-015 2.84217e-014 10.7338 -18.2477 -45.4125 28.8168 0 0 43.8228 -14.7919 -2.23936 -4.01401 23.8974 -0.31355 4.25619 25.7874 9.88045 -14.6104 0 0 33.9612 61.3429 33.3672 -28.8903 -2.84217e-014 7.10543e-015 -27.4165 -26.2864 24.3514 -28.8168 1.42109e-014 0 -14.8786 -19.6133 -9.29067 10.0615 -1.42109e-014 0 8.46224 -34.3898 2.59936 0 -36.0896 0 -22.5581 53.1061 -4.63058 3.55271e-015 -47.1136 0 -8.78996 -10.2058 22.3641 7.10543e-015 -6.53997 15.0922 3.97569e-015 1.59028e-015 -6.36111e-015 -10.0615 0 0 -3.62279 14.5286 -8.01274 0 -36.0896 0 7.57735 14.5723 -9.1141 -5.32907e-015 -47.1136 -1.42109e-014 -5.84927 -22.2521 -18.4631 0 -6.53997 15.0922 -4.22417e-016 1.98785e-016 -0 
